<svg xmlns="http://www.w3.org/2000/svg" version="1.1" xmlns:xlink="http://www.w3.org/1999/xlink" viewBox="0 0 9.575345159410311 3.4173751919755815"><g transform="matrix(0.7593995151855966,0,0,0.7593995151855966,3.8978917345348587,1.2860817657870063)"><rect width="10.658071855359136" height="10.658071855359136" x="-4.157345891832185" y="-4.772535927679568" fill="#ffffff"></rect><g transform="matrix(1,0,0,1,0,0)" clip-path="url(#SvgjsClipPath14051)"><g clip-path="url(#SvgjsClipPath14046f6fc568e-dfcd-48a0-a9a4-aeb02bfb4b7c)"><path d=" M -0.49636460188459886 1.723824248013379 L -2.9782545939987615 1.723824248013379 C -3.058999930562823 1.723824248013379 -3.103828293887744 1.6302772698540078 -3.0532097887811984 1.5673547134615096 L -2.7000111401021005 1.127937234815408 C -2.681760904224019 1.1052235511273765 -2.6541932494721485 1.0920137032861064 -2.6250559453196645 1.092020261576268 L -0.8495632505636959 1.092020261576268 C -0.8204259464112127 1.0920137032861064 -0.7928582916593427 1.1052235511273765 -0.7746080557812598 1.127937234815408 L -0.42140940710216324 1.5673547134615096 C -0.37079090199561593 1.6303225053366768 -0.4156192653205366 1.723824248013379 -0.49636460188459886 1.723824248013379 Z" fill="#092030" transform="matrix(1,0,0,1,0,0)" fill-rule="nonzero"></path></g><g clip-path="url(#SvgjsClipPath14046f6fc568e-dfcd-48a0-a9a4-aeb02bfb4b7c)"><path d=" M -1.0529419806432596 1.250344450917565 L -0.9159237036390353 1.5655000586720826 L -0.6260094952137871 1.5655000586720826 L -0.8793281981598611 1.250344450917565 L -1.0529419806432596 1.250344450917565 Z" fill="#164861" transform="matrix(1,0,0,1,0,0)" fill-rule="nonzero"></path></g><g clip-path="url(#SvgjsClipPath14046f6fc568e-dfcd-48a0-a9a4-aeb02bfb4b7c)"><path d=" M -1.5988437854920496 1.250344450917565 L -1.5275526648057975 1.5655000586720826 L -0.7796291943575131 1.5655000586720826 L -0.9859029953278879 1.250344450917565 L -1.5988437854920496 1.250344450917565 Z" fill="#33647a" transform="matrix(1,0,0,1,0,0)" fill-rule="nonzero"></path></g><g clip-path="url(#SvgjsClipPath14046f6fc568e-dfcd-48a0-a9a4-aeb02bfb4b7c)"><path d=" M -2.2648457968268803 1.250344450917565 L -2.375808435813795 1.5655000586720826 L -1.7373095979416808 1.5655000586720826 L -1.2994753611889927 1.5655000586720826 L -1.467299001890767 1.250344450917565 L -1.7373095979416808 1.250344450917565 L -2.2648457968268803 1.250344450917565 Z" fill="#5d95ac" transform="matrix(1,0,0,1,0,0)" fill-rule="nonzero"></path></g><g clip-path="url(#SvgjsClipPath14046f6fc568e-dfcd-48a0-a9a4-aeb02bfb4b7c)"><path d=" M -2.226667049454294 1.5655000586720826 L -2.094081849751625 1.250344450917565 L -2.5952457622408316 1.250344450917565 L -2.848564465186906 1.5655000586720826 L -2.226667049454294 1.5655000586720826 Z" fill="#ffffff" transform="matrix(1,0,0,1,0,0)" fill-rule="nonzero"></path></g><g clip-path="url(#SvgjsClipPath14046f6fc568e-dfcd-48a0-a9a4-aeb02bfb4b7c)"><path d=" M -2.701051556203487 1.0124510475615998 L -0.7735224041972057 1.0124510475615998 C -0.7453417274026499 1.0124510475615998 -0.7224967797466393 1.0352959952176102 -0.7224967797466393 1.0634766720121662 L -0.7224967797466393 1.1173521318708763 C -0.7224967797466393 1.1455328086654322 -0.7453417274026499 1.1683777563214426 -0.7735224041972057 1.1683777563214426 L -2.701051556203487 1.1683777563214426 C -2.7292322329980427 1.1683777563214426 -2.7520771806540534 1.1455328086654322 -2.7520771806540534 1.1173521318708763 L -2.7520771806540534 1.0634766720121662 C -2.7520771806540534 1.0352959952176102 -2.7292322329980427 1.0124510475615998 -2.701051556203487 1.0124510475615998 Z" fill="#5d95ac" transform="matrix(1,0,0,1,0,0)" fill-rule="nonzero"></path></g><g clip-path="url(#SvgjsClipPath14046f6fc568e-dfcd-48a0-a9a4-aeb02bfb4b7c)"><path d=" M -0.7735224041972053 1.0124058120789305 L -1.7373095979416802 1.0124058120789305 L -1.7373095979416802 1.1683777563214424 L -0.7735224041972053 1.1683777563214424 C -0.7453903425249431 1.16827835973165 -0.7226164609541619 1.1454842706350732 -0.7225420152293083 1.1173521318708763 L -0.7225420152293083 1.0634314365294975 C -0.7226164609541601 1.0352992977653013 -0.7453903425249409 1.0125052086687238 -0.7735224041972035 1.0124058120789303 Z" fill="#33647a" transform="matrix(1,0,0,1,0,0)" fill-rule="nonzero"></path></g><g clip-path="url(#SvgjsClipPath14046f6fc568e-dfcd-48a0-a9a4-aeb02bfb4b7c)"><path d=" M -0.8537249149692396 0.9100831502817843 L -0.8537249149692396 0.6351418866199559 C -0.8537249149692396 0.14791050279278317 -1.2500782141145073 -0.24844279635248545 -1.7373095979416802 -0.24844279635248545 C -2.224540981768853 -0.24844279635248545 -2.620894280914121 0.14791050279278317 -2.620894280914121 0.6351418866199559 L -2.620894280914121 0.9100831502817843 Z M -1.7373095979416802 0.2853358991410284 C -1.5605157710467035 0.2855470322408644 -1.4115880003984198 0.41746169166620417 -1.3900367974922143 0.5929371812898332 L -2.084582398391147 0.5929371812898332 C -2.0630311954849416 0.4174616916662046 -1.914103424836657 0.28554703224086475 -1.7373095979416802 0.2853358991410284 Z" fill="#092030" transform="matrix(1,0,0,1,0,0)" fill-rule="nonzero"></path></g><g clip-path="url(#SvgjsClipPath14046f6fc568e-dfcd-48a0-a9a4-aeb02bfb4b7c)"><path d=" M -1.0007402336433011 0.9100831502817843 L -1.0007402336433011 0.6351418866199559 C -1.0007402336433011 0.2289724877355268 -1.3309592571265763 -0.10142747767842442 -1.7373095979416802 -0.10142747767842442 C -2.1436599387567843 -0.10142747767842442 -2.47387896224006 0.22879154580485106 -2.47387896224006 0.6351418866199559 L -2.47387896224006 0.9100831502817843 Z M -2.2341309040946684 0.6351418866199559 C -2.2341309040946684 0.3607550558406448 -2.0116964287209913 0.13832058046696727 -1.7373095979416802 0.13832058046696727 C -1.4629227671623692 0.13832058046696727 -1.2404882917886928 0.3607550558406444 -1.2404882917886928 0.6351418866199559 L -1.2404882917886928 0.7399524999638942 L -2.2341309040946684 0.7399524999638942 Z" fill="#ffffff" transform="matrix(1,0,0,1,0,0)" fill-rule="nonzero"></path></g><g clip-path="url(#SvgjsClipPath14046f6fc568e-dfcd-48a0-a9a4-aeb02bfb4b7c)"><path d=" M -1.7373095979416802 0.018446551394271427 L -1.7373095979416802 0.018446551394271427 C -2.0765757179587445 0.018446551394271427 -2.354004933167364 0.2959662375682298 -2.354004933167364 0.6351418866199559 L -2.354004933167364 0.9050620117055319 L -1.1206142627159956 0.9050620117055319 L -1.1206142627159956 0.6351418866199559 C -1.1206142627159965 0.29587576660289183 -1.398043477924617 0.018446551394271427 -1.7373095979416802 0.018446551394271427 Z" fill="#f69e69" transform="matrix(1,0,0,1,0,0)" fill-rule="nonzero"></path></g><g clip-path="url(#SvgjsClipPath14046f6fc568e-dfcd-48a0-a9a4-aeb02bfb4b7c)"><path d=" M -1.7373095979416802 0.018446551394271427 L -1.7373095979416802 0.018446551394271427 L -1.7373095979416802 0.9050620117055317 L -1.1206142627159965 0.9050620117055317 L -1.1206142627159965 0.6351418866199559 C -1.1206142627159965 0.29587576660289183 -1.398043477924617 0.018446551394271427 -1.7373095979416802 0.018446551394271427 Z" fill="#dd6430" transform="matrix(1,0,0,1,0,0)" fill-rule="nonzero"></path></g><g clip-path="url(#SvgjsClipPath14046f6fc568e-dfcd-48a0-a9a4-aeb02bfb4b7c)"><path d=" M -2.6942209983204766 0.8677427385036549 L -0.7803981975628846 0.8677427385036549 C -0.7390015828035059 0.8677427385036549 -0.7054430027804486 0.9013013185267125 -0.7054430027804486 0.9426979332860916 L -0.7054430027804486 0.9426979332860916 C -0.7054430027804486 0.9840945480454706 -0.7390015828035059 1.017653128068528 -0.7803981975628846 1.017653128068528 L -2.6942209983204766 1.017653128068528 C -2.7356176130798557 1.017653128068528 -2.769176193102913 0.9840945480454706 -2.769176193102913 0.9426979332860916 L -2.769176193102913 0.9426979332860916 C -2.769176193102913 0.9013013185267125 -2.7356176130798557 0.8677427385036549 -2.6942209983204766 0.8677427385036549 Z" fill="#092030" transform="matrix(1,0,0,1,0,0)" fill-rule="nonzero"></path></g><g clip-path="url(#SvgjsClipPath14046f6fc568e-dfcd-48a0-a9a4-aeb02bfb4b7c)"><path d=" M -2.73723994233864 1.0602649527426713 L -0.7373340180620525 1.0602649527426713 C -0.7091533412674962 1.0602649527426713 -0.686308393611486 1.0831099003986817 -0.686308393611486 1.1112905771932378 L -0.686308393611486 1.1651660370519477 C -0.686308393611486 1.1933467138465035 -0.7091533412674962 1.2161916615025137 -0.7373340180620525 1.2161916615025137 L -2.73723994233864 1.2161916615025137 C -2.7654206191331965 1.2161916615025137 -2.7882655667892067 1.1933467138465035 -2.7882655667892067 1.1651660370519477 L -2.7882655667892067 1.1112905771932378 C -2.7882655667892067 1.0831099003986817 -2.7654206191331965 1.0602649527426713 -2.73723994233864 1.0602649527426713 Z" fill="#092030" transform="matrix(1,0,0,1,0,0)" fill-rule="nonzero"></path></g><g clip-path="url(#SvgjsClipPath14046f6fc568e-dfcd-48a0-a9a4-aeb02bfb4b7c)"><path d=" M -0.7403616117039657 0.35631291016014444 L -0.7647681301359404 0.2811973701822925 C -0.7665205999281826 0.2758038227533126 -0.7635689239046028 0.27001083238058654 -0.7581753764756227 0.26825836258834534 L -0.5740863755791534 0.20844422033724475 C -0.5686928281501737 0.20669175054500366 -0.5628998377774486 0.20964342656858248 -0.5611473679852064 0.2150369739975625 L -0.5367408495532318 0.2901525139754162 C -0.5349883797609896 0.2955460614043962 -0.5379400557845693 0.3013390517771204 -0.5433336032135494 0.30309152156936336 L -0.7274226041100187 0.3629056638204621 C -0.7328161515389979 0.36465813361270516 -0.7386091419117236 0.36170645758912434 -0.7403616117039657 0.35631291016014444 Z" fill="#092030" transform="matrix(1,0,0,1,0,0)" fill-rule="nonzero"></path></g><g clip-path="url(#SvgjsClipPath14046f6fc568e-dfcd-48a0-a9a4-aeb02bfb4b7c)"><path d=" M -0.9414306841203057 -0.02480132510032762 L -0.9942793907441252 -0.08349576006927883 C -0.9980741049380177 -0.08771021714321459 -0.9977338361718164 -0.09420293198166285 -0.9935193790978807 -0.09799764617555407 L -0.8496743119546175 -0.2275163263836426 C -0.8454598548806809 -0.23131104057753477 -0.8389671400422323 -0.23097077181133385 -0.8351724258483402 -0.2267563147373981 L -0.7823237192245207 -0.1680618797684469 C -0.7785290050306295 -0.16384742269451114 -0.7788692737968304 -0.15735470785606281 -0.783083730870767 -0.15355999366217066 L -0.9269287980140306 -0.024041313454082114 C -0.9311432550879664 -0.0202465992601909 -0.9376359699264145 -0.02058686802639187 -0.9414306841203057 -0.02480132510032762 Z" fill="#092030" transform="matrix(1,0,0,1,0,0)" fill-rule="nonzero"></path></g><g clip-path="url(#SvgjsClipPath14046f6fc568e-dfcd-48a0-a9a4-aeb02bfb4b7c)"><path d=" M -1.2800679335374903 -0.29113469603171854 L -1.3522208068624686 -0.3232592249634321 C -1.3574016248999905 -0.32556587376710094 -1.359731598952089 -0.3316356636912423 -1.3574249501484212 -0.3368164817287638 L -1.2786959356588439 -0.5136447434455921 C -1.276389286855175 -0.5188255614831134 -1.2703194969310332 -0.5211555355352121 -1.2651386788935113 -0.5188488867315433 L -1.192985805568533 -0.48672435779982975 C -1.187804987531012 -0.48441770899616143 -1.1854750134789134 -0.47834791907201957 -1.187781662282582 -0.47316710103449816 L -1.2665106767721594 -0.29633883931766986 C -1.2688173255758275 -0.29115802128014845 -1.2748871154999692 -0.2888280472280503 -1.2800679335374903 -0.29113469603171854 Z" fill="#092030" transform="matrix(1,0,0,1,0,0)" fill-rule="nonzero"></path></g><g clip-path="url(#SvgjsClipPath14046f6fc568e-dfcd-48a0-a9a4-aeb02bfb4b7c)"><path d=" M -2.937820814956748 0.29009408271807857 L -2.9134142965247727 0.21497854274022488 C -2.9116618267325305 0.20958499531124586 -2.9058688363598058 0.20663331928766604 -2.900475288930826 0.20838578907990812 L -2.7163862880343568 0.2681999313310077 C -2.710992740605377 0.2699524011232498 -2.7080410645817974 0.275745391495975 -2.709793534374039 0.281138938924954 L -2.7342000528060137 0.3562544789028077 C -2.735952522598256 0.3616480263317877 -2.741745512970981 0.36459970235536754 -2.747139060399961 0.36284723256312545 L -2.9312280612964305 0.30303309031202574 C -2.9366216087254093 0.30128062051978366 -2.9395732847489895 0.2954876301470586 -2.937820814956748 0.29009408271807857 Z" fill="#092030" transform="matrix(1,0,0,1,0,0)" fill-rule="nonzero"></path></g><g clip-path="url(#SvgjsClipPath14046f6fc568e-dfcd-48a0-a9a4-aeb02bfb4b7c)"><path d=" M -2.692286898367351 -0.16804551928928957 L -2.6394381917435314 -0.22673995425824078 C -2.6356434775496393 -0.23095441133217653 -2.6291507627111907 -0.2312946800983765 -2.624936305637255 -0.2274999659044853 L -2.481091238493992 -0.09798128569639675 C -2.4768767814200547 -0.09418657150250465 -2.476536512653854 -0.08769385666405627 -2.4803312268477464 -0.08347939959012052 L -2.5331799334715654 -0.024784964621170302 C -2.536974647665457 -0.020570507547233552 -2.5434673625039053 -0.020230238781032583 -2.547681819577842 -0.024024952974924796 L -2.6915268867211055 -0.15354363318301328 C -2.6957413437950413 -0.15733834737690455 -2.696081612561242 -0.16383106221535382 -2.692286898367351 -0.16804551928928957 Z" fill="#092030" transform="matrix(1,0,0,1,0,0)" fill-rule="nonzero"></path></g><g clip-path="url(#SvgjsClipPath14046f6fc568e-dfcd-48a0-a9a4-aeb02bfb4b7c)"><path d=" M -2.281586216846669 -0.48676419143350963 L -2.209433343521691 -0.5188887203652232 C -2.20425252548417 -0.5211953691688915 -2.198182735560028 -0.5188653951167939 -2.19587608675636 -0.5136845770792724 L -2.1171470722667824 -0.3368563153624441 C -2.114840423463114 -0.3316754973249227 -2.1171703975152125 -0.3256057074007803 -2.1223512155527335 -0.323299058597112 L -2.1945040888777116 -0.2911745296653984 C -2.1996849069152336 -0.2888678808617301 -2.2057546968393753 -0.29119785491382877 -2.2080613456430442 -0.2963786729513502 L -2.2867903601326214 -0.4732069346681785 C -2.2890970089362894 -0.4783877527056999 -2.286767034884191 -0.4844575426298413 -2.281586216846669 -0.48676419143350963 Z" fill="#092030" transform="matrix(1,0,0,1,0,0)" fill-rule="nonzero"></path></g><g clip-path="url(#SvgjsClipPath14046f6fc568e-dfcd-48a0-a9a4-aeb02bfb4b7c)"><path d=" M -1.7768001743116673 -0.6108242480133785 L -1.6978190215716944 -0.6108242480133785 C -1.692147910195485 -0.6108242480133785 -1.6875505670058448 -0.6062269048237382 -1.6875505670058448 -0.6005557934475287 L -1.6875505670058448 -0.4069931631071266 C -1.6875505670058448 -0.4013220517309172 -1.692147910195485 -0.3967247085412767 -1.6978190215716944 -0.3967247085412767 L -1.7768001743116673 -0.3967247085412767 C -1.7824712856878766 -0.3967247085412767 -1.7870686288775168 -0.4013220517309172 -1.7870686288775168 -0.4069931631071266 L -1.7870686288775168 -0.6005557934475287 C -1.7870686288775168 -0.6062269048237382 -1.7824712856878766 -0.6108242480133785 -1.7768001743116673 -0.6108242480133785 Z" fill="#092030" transform="matrix(1,0,0,1,0,0)" fill-rule="nonzero"></path></g></g><g><path d=" M 0.2625 1.1325 Q 0.2625 1.1325 0.25275000000000003 1.08825 Q 0.243 1.044 0.2265 0.972 Q 0.21 0.9 0.18975 0.81375 Q 0.1695 0.7275 0.15 0.6419999999999999 Q 0.1305 0.5565 0.11325 0.48524999999999996 Q 0.096 0.4139999999999999 0.0855 0.37349999999999994 Q 0.07200000000000001 0.3225 0.05325 0.29999999999999993 Q 0.0345 0.27749999999999997 0.003 0.273 L -0.0075 0.258 L 0.0045000000000000005 0.13949999999999996 Q 0.0045000000000000005 0.13949999999999996 0.02475 0.14024999999999999 Q 0.045 0.14100000000000001 0.07725 0.14100000000000001 Q 0.1095 0.14100000000000001 0.14475 0.14174999999999993 Q 0.18 0.14249999999999996 0.21 0.14249999999999996 Q 0.264 0.14249999999999996 0.315 0.14100000000000001 Q 0.366 0.13949999999999996 0.40725 0.13874999999999993 Q 0.4485 0.138 0.47250000000000003 0.13649999999999995 Q 0.4965 0.135 0.4965 0.135 L 0.5085000000000001 0.14849999999999997 L 0.4995 0.27449999999999997 Q 0.453 0.28049999999999997 0.43275 0.2849999999999999 Q 0.41250000000000003 0.2895 0.40800000000000003 0.29774999999999996 Q 0.4035 0.30599999999999994 0.4035 0.3255 Q 0.4035 0.33899999999999997 0.40800000000000003 0.37349999999999994 Q 0.41250000000000003 0.40800000000000003 0.41925 0.4575 Q 0.426 0.507 0.435 0.56175 Q 0.444 0.6165 0.453 0.66975 Q 0.462 0.723 0.46875 0.7657499999999999 Q 0.47550000000000003 0.8085 0.48 0.83475 Q 0.4845 0.861 0.4845 0.861 L 0.5175 0.861 Q 0.5175 0.861 0.5265 0.8242499999999999 Q 0.5355 0.7875 0.54975 0.729 Q 0.5640000000000001 0.6705 0.579 0.603 Q 0.594 0.5355 0.60825 0.47250000000000003 Q 0.6225 0.4095 0.6315000000000001 0.36449999999999994 Q 0.6405 0.3195 0.6405 0.3075 Q 0.6405 0.2879999999999999 0.63225 0.28274999999999995 Q 0.624 0.27749999999999997 0.594 0.27749999999999997 L 0.555 0.27749999999999997 L 0.543 0.26249999999999996 L 0.555 0.138 Q 0.555 0.138 0.594 0.13949999999999996 Q 0.633 0.14100000000000001 0.687 0.14174999999999993 Q 0.741 0.14249999999999996 0.786 0.14249999999999996 Q 0.8295 0.14249999999999996 0.8715 0.14174999999999993 Q 0.9135 0.14100000000000001 0.9420000000000001 0.14100000000000001 Q 0.9705 0.14100000000000001 0.9705 0.14100000000000001 L 0.96 0.27149999999999996 Q 0.936 0.279 0.924 0.29474999999999996 Q 0.912 0.3105 0.8985 0.354 L 0.675 1.107 L 0.2625 1.1325 M 1.259990478515625 1.131 Q 1.142990478515625 1.131 1.060490478515625 1.089 Q 0.977990478515625 1.047 0.935240478515625 0.9652499999999999 Q 0.892490478515625 0.8835 0.892490478515625 0.768 Q 0.892490478515625 0.681 0.919490478515625 0.61125 Q 0.946490478515625 0.5415 0.996740478515625 0.49124999999999996 Q 1.046990478515625 0.44099999999999995 1.117490478515625 0.4139999999999999 Q 1.187990478515625 0.387 1.274990478515625 0.387 Q 1.559990478515625 0.387 1.559990478515625 0.687 Q 1.559990478515625 0.714 1.5554904785156252 0.7417499999999999 Q 1.550990478515625 0.7695 1.5479904785156249 0.786 L 1.5314904785156251 0.8009999999999999 L 1.175990478515625 0.8009999999999999 Q 1.181990478515625 0.87 1.223240478515625 0.9045 Q 1.264490478515625 0.939 1.335740478515625 0.9359999999999999 Q 1.4069904785156249 0.933 1.501490478515625 0.891 L 1.514990478515625 0.8985 L 1.5479904785156249 1.0095 Q 1.514990478515625 1.035 1.4654904785156249 1.0635 Q 1.415990478515625 1.092 1.361990478515625 1.1115 Q 1.307990478515625 1.131 1.259990478515625 1.131 M 1.168490478515625 0.687 L 1.292990478515625 0.6779999999999999 Q 1.304990478515625 0.6765 1.307990478515625 0.6712499999999999 Q 1.310990478515625 0.6659999999999999 1.310990478515625 0.651 Q 1.310990478515625 0.6014999999999999 1.295990478515625 0.5775 Q 1.280990478515625 0.5535 1.250990478515625 0.5535 Q 1.205990478515625 0.5535 1.187240478515625 0.5842499999999999 Q 1.168490478515625 0.615 1.168490478515625 0.687 M 1.579481689453125 1.1205 L 1.595981689453125 0.9915 Q 1.621481689453125 0.9884999999999999 1.634981689453125 0.98025 Q 1.648481689453125 0.972 1.653731689453125 0.95625 Q 1.658981689453125 0.9405 1.658981689453125 0.9135 L 1.658981689453125 0.26549999999999996 Q 1.658981689453125 0.22499999999999998 1.652231689453125 0.20624999999999993 Q 1.645481689453125 0.1875 1.622231689453125 0.18225000000000002 Q 1.598981689453125 0.17699999999999994 1.549481689453125 0.17699999999999994 L 1.541981689453125 0.16649999999999998 L 1.553981689453125 0.05400000000000005 Q 1.654481689453125 0.04200000000000004 1.754981689453125 0.02849999999999997 Q 1.855481689453125 0.014999999999999902 1.955981689453125 0 L 1.969481689453125 0.038999999999999924 Q 1.958981689453125 0.07200000000000006 1.949981689453125 0.12449999999999994 Q 1.940981689453125 0.17699999999999994 1.9349816894531249 0.252 Q 1.928981689453125 0.32699999999999996 1.924481689453125 0.42674999999999996 Q 1.919981689453125 0.5265 1.9184816894531251 0.6547499999999999 Q 1.916981689453125 0.7829999999999999 1.916981689453125 0.942 Q 1.916981689453125 0.969 1.924481689453125 0.9795 Q 1.931981689453125 0.99 1.951481689453125 0.99 L 1.999481689453125 0.9884999999999999 L 2.003981689453125 0.999 L 1.984481689453125 1.119 Q 1.925981689453125 1.1159999999999999 1.867481689453125 1.1145 Q 1.808981689453125 1.113 1.768481689453125 1.113 Q 1.732481689453125 1.113 1.679981689453125 1.11525 Q 1.627481689453125 1.1175 1.579481689453125 1.1205 M 2.392462646484375 1.131 Q 2.285962646484375 1.131 2.208712646484375 1.08825 Q 2.131462646484375 1.0455 2.089462646484375 0.9652499999999999 Q 2.047462646484375 0.885 2.047462646484375 0.7755 Q 2.047462646484375 0.6525 2.092462646484375 0.56625 Q 2.137462646484375 0.48 2.222212646484375 0.4335 Q 2.306962646484375 0.387 2.425462646484375 0.387 Q 2.536462646484375 0.387 2.612962646484375 0.42825 Q 2.689462646484375 0.46950000000000003 2.729212646484375 0.54825 Q 2.768962646484375 0.627 2.768962646484375 0.741 Q 2.768962646484375 0.8625 2.723962646484375 0.95025 Q 2.6789626464843748 1.038 2.594962646484375 1.0845 Q 2.510962646484375 1.131 2.392462646484375 1.131 M 2.4104626464843752 0.9704999999999999 Q 2.449462646484375 0.9704999999999999 2.464462646484375 0.93975 Q 2.479462646484375 0.909 2.479462646484375 0.8265 Q 2.479462646484375 0.726 2.472712646484375 0.66975 Q 2.465962646484375 0.6134999999999999 2.448712646484375 0.5902499999999999 Q 2.431462646484375 0.567 2.401462646484375 0.567 Q 2.362462646484375 0.567 2.347462646484375 0.597 Q 2.332462646484375 0.627 2.332462646484375 0.7064999999999999 Q 2.332462646484375 0.8085 2.339212646484375 0.86625 Q 2.345962646484375 0.9239999999999999 2.3632126464843752 0.9472499999999999 Q 2.380462646484375 0.9704999999999999 2.4104626464843752 0.9704999999999999 M 3.155999267578125 1.1205 L 3.148499267578125 1.113 L 3.1619992675781248 1.008 Q 3.187499267578125 1.0065 3.1979992675781252 1.00125 Q 3.208499267578125 0.996 3.208499267578125 0.9855 Q 3.208499267578125 0.9795 3.206249267578125 0.9735 Q 3.203999267578125 0.9675 3.196499267578125 0.957 L 3.130499267578125 0.87 Q 3.116999267578125 0.888 3.102749267578125 0.9075 Q 3.088499267578125 0.927 3.077999267578125 0.94425 Q 3.067499267578125 0.9615 3.067499267578125 0.9735 Q 3.067499267578125 0.99 3.077999267578125 0.99825 Q 3.088499267578125 1.0065 3.110999267578125 1.0065 L 3.116999267578125 1.0185 L 3.104999267578125 1.119 Q 3.104999267578125 1.119 3.083999267578125 1.11825 Q 3.062999267578125 1.1175 3.032249267578125 1.1159999999999999 Q 3.001499267578125 1.1145 2.973749267578125 1.11375 Q 2.945999267578125 1.113 2.932499267578125 1.113 Q 2.903999267578125 1.113 2.869499267578125 1.1145 Q 2.834999267578125 1.1159999999999999 2.810999267578125 1.1175 Q 2.786999267578125 1.119 2.786999267578125 1.119 L 2.780999267578125 1.104 L 2.794499267578125 1.0035 Q 2.806499267578125 0.9974999999999999 2.822249267578125 0.984 Q 2.837999267578125 0.9704999999999999 2.861249267578125 0.9435 Q 2.884499267578125 0.9165 2.920499267578125 0.873 L 3.031499267578125 0.738 L 2.944499267578125 0.6225 Q 2.921999267578125 0.591 2.898749267578125 0.573 Q 2.875499267578125 0.5549999999999999 2.851499267578125 0.5459999999999999 Q 2.827499267578125 0.5369999999999999 2.798999267578125 0.531 L 2.794499267578125 0.5235 L 2.804999267578125 0.40349999999999997 Q 2.804999267578125 0.40349999999999997 2.828249267578125 0.40349999999999997 Q 2.851499267578125 0.40349999999999997 2.896499267578125 0.40425 Q 2.941499267578125 0.405 3.005999267578125 0.405 Q 3.0569992675781252 0.405 3.107249267578125 0.40274999999999994 Q 3.157499267578125 0.40049999999999997 3.191999267578125 0.399 Q 3.226499267578125 0.39749999999999996 3.226499267578125 0.39749999999999996 L 3.233999267578125 0.4095 L 3.223499267578125 0.5205 Q 3.178499267578125 0.5205 3.178499267578125 0.5489999999999999 Q 3.178499267578125 0.5685 3.185999267578125 0.582 Q 3.193499267578125 0.5955 3.208499267578125 0.6134999999999999 L 3.247499267578125 0.663 L 3.293999267578125 0.5955 Q 3.304499267578125 0.579 3.311999267578125 0.56625 Q 3.319499267578125 0.5535 3.319499267578125 0.5415 Q 3.319499267578125 0.5295 3.310499267578125 0.52425 Q 3.301499267578125 0.519 3.277499267578125 0.519 L 3.274499267578125 0.513 L 3.283499267578125 0.405 L 3.445499267578125 0.405 Q 3.4799992675781253 0.405 3.513749267578125 0.40349999999999997 Q 3.547499267578125 0.402 3.570749267578125 0.40125 Q 3.593999267578125 0.40049999999999997 3.593999267578125 0.40049999999999997 L 3.598499267578125 0.4095 L 3.590999267578125 0.5265 Q 3.547499267578125 0.5535 3.514499267578125 0.579 Q 3.481499267578125 0.6044999999999999 3.458999267578125 0.6375 L 3.350999267578125 0.7935 L 3.440999267578125 0.9059999999999999 Q 3.478499267578125 0.9525 3.509249267578125 0.975 Q 3.539999267578125 0.9974999999999999 3.581999267578125 1.0005 L 3.586499267578125 1.005 L 3.569999267578125 1.1159999999999999 Q 3.569999267578125 1.1159999999999999 3.539999267578125 1.11525 Q 3.509999267578125 1.1145 3.473249267578125 1.11375 Q 3.436499267578125 1.113 3.415499267578125 1.113 Q 3.3959992675781248 1.113 3.353249267578125 1.1145 Q 3.310499267578125 1.1159999999999999 3.265499267578125 1.11675 Q 3.220499267578125 1.1175 3.188249267578125 1.119 Q 3.155999267578125 1.1205 3.155999267578125 1.1205 M 4.349993408203125 1.137 Q 4.286993408203125 1.137 4.247993408203125 1.1055 Q 4.208993408203125 1.074 4.178993408203125 1.0005 L 4.085993408203125 0.7709999999999999 L 4.001993408203125 0.7709999999999999 L 4.001993408203125 0.873 Q 4.001993408203125 0.9195 4.0087434082031255 0.942 Q 4.015493408203125 0.9645 4.037993408203125 0.97125 Q 4.060493408203125 0.978 4.108493408203125 0.981 L 4.115993408203125 0.993 L 4.100993408203125 1.119 Q 4.100993408203125 1.119 4.072493408203125 1.11825 Q 4.043993408203125 1.1175 4.001993408203125 1.1159999999999999 Q 3.959993408203125 1.1145 3.919493408203125 1.11375 Q 3.878993408203125 1.113 3.854993408203125 1.113 Q 3.799493408203125 1.113 3.739493408203125 1.1159999999999999 Q 3.679493408203125 1.119 3.637493408203125 1.12275 Q 3.595493408203125 1.1265 3.595493408203125 1.1265 L 3.608993408203125 0.9884999999999999 Q 3.664493408203125 0.9795 3.685493408203125 0.95175 Q 3.706493408203125 0.9239999999999999 3.706493408203125 0.861 L 3.706493408203125 0.3405 Q 3.706493408203125 0.30299999999999994 3.698243408203125 0.28874999999999995 Q 3.689993408203125 0.27449999999999997 3.667493408203125 0.27449999999999997 Q 3.650993408203125 0.27449999999999997 3.632993408203125 0.276 Q 3.614993408203125 0.27749999999999997 3.614993408203125 0.27749999999999997 L 3.599993408203125 0.25949999999999995 L 3.616493408203125 0.14100000000000001 Q 3.616493408203125 0.14100000000000001 3.640493408203125 0.14100000000000001 Q 3.664493408203125 0.14100000000000001 3.699743408203125 0.14174999999999993 Q 3.734993408203125 0.14249999999999996 3.770993408203125 0.14249999999999996 Q 3.806993408203125 0.14249999999999996 3.829493408203125 0.14249999999999996 Q 3.856493408203125 0.14249999999999996 3.902243408203125 0.14100000000000001 Q 3.947993408203125 0.13949999999999996 3.995243408203125 0.138 Q 4.042493408203125 0.13649999999999995 4.074743408203125 0.135 Q 4.106993408203125 0.13349999999999995 4.106993408203125 0.13349999999999995 Q 4.313993408203125 0.13349999999999995 4.417493408203125 0.20324999999999993 Q 4.520993408203125 0.273 4.520993408203125 0.4155 Q 4.520993408203125 0.5025 4.475243408203125 0.5745 Q 4.429493408203125 0.6465 4.340993408203125 0.699 L 4.433993408203125 0.855 Q 4.472993408203125 0.9195 4.509743408203125 0.9532499999999999 Q 4.5464934082031245 0.987 4.579493408203125 0.987 L 4.595993408203125 1.011 L 4.582493408203125 1.1205 L 4.349993408203125 1.137 M 4.120493408203125 0.597 Q 4.145993408203125 0.5865 4.163243408203125 0.573 Q 4.180493408203125 0.5595 4.191743408203125 0.54225 Q 4.202993408203125 0.525 4.207493408203125 0.501 Q 4.211993408203125 0.477 4.211993408203125 0.4455 Q 4.211993408203125 0.381 4.1714934082031245 0.351 Q 4.130993408203125 0.32099999999999995 4.042493408203125 0.32099999999999995 Q 4.027493408203125 0.32099999999999995 4.022993408203125 0.32699999999999996 Q 4.018493408203125 0.33299999999999996 4.016993408203125 0.354 Q 4.012493408203125 0.4109999999999999 4.010243408203125 0.46799999999999997 Q 4.007993408203125 0.525 4.006493408203125 0.582 L 4.120493408203125 0.597 M 4.924461181640625 1.131 Q 4.837461181640625 1.131 4.770711181640625 1.1145 Q 4.703961181640625 1.098 4.666461181640625 1.08225 Q 4.628961181640625 1.0665 4.628961181640625 1.0665 L 4.610961181640625 1.0395 Q 4.610961181640625 1.0395 4.615461181640625 1.0155 Q 4.619961181640625 0.9915 4.625211181640625 0.9532499999999999 Q 4.630461181640625 0.915 4.635711181640625 0.87225 Q 4.640961181640625 0.8294999999999999 4.642461181640625 0.792 L 4.831461181640625 0.7785 Q 4.831461181640625 0.8325 4.846461181640625 0.86625 Q 4.861461181640625 0.9 4.891461181640625 0.91575 Q 4.921461181640625 0.9315 4.963461181640625 0.9315 Q 5.009961181640625 0.9315 5.036211181640625 0.915 Q 5.062461181640625 0.8985 5.062461181640625 0.87 Q 5.062461181640625 0.837 5.031711181640625 0.81375 Q 5.000961181640625 0.7905 4.951461181640625 0.7695 Q 4.901961181640625 0.7484999999999999 4.847961181640625 0.7244999999999999 Q 4.7909611816406255 0.699 4.738461181640625 0.6637500000000001 Q 4.685961181640625 0.6285000000000001 4.652211181640625 0.576 Q 4.618461181640625 0.5235 4.618461181640625 0.4455 Q 4.618461181640625 0.348 4.676211181640625 0.276 Q 4.733961181640625 0.20399999999999996 4.837461181640625 0.16425 Q 4.940961181640625 0.12449999999999994 5.080461181640625 0.12449999999999994 Q 5.162961181640625 0.12449999999999994 5.227461181640625 0.135 Q 5.291961181640625 0.14549999999999996 5.3294611816406245 0.15599999999999992 Q 5.366961181640625 0.16649999999999998 5.366961181640625 0.16649999999999998 L 5.384961181640625 0.1995 Q 5.384961181640625 0.1995 5.377461181640625 0.23624999999999996 Q 5.369961181640625 0.273 5.360211181640625 0.33299999999999996 Q 5.350461181640625 0.393 5.344461181640625 0.4605 L 5.170461181640625 0.47250000000000003 L 5.152461181640625 0.4605 Q 5.152461181640625 0.4605 5.152461181640625 0.4515 Q 5.152461181640625 0.4425 5.152461181640625 0.4365 Q 5.152461181640625 0.384 5.123961181640625 0.35775 Q 5.095461181640625 0.3315 5.042961181640625 0.3315 Q 5.000961181640625 0.3315 4.974711181640625 0.35024999999999995 Q 4.948461181640625 0.369 4.948461181640625 0.399 Q 4.948461181640625 0.42899999999999994 4.975461181640625 0.4515 Q 5.002461181640625 0.474 5.045211181640625 0.49275 Q 5.087961181640625 0.5115 5.137461181640625 0.5325 Q 5.198961181640625 0.5579999999999999 5.257461181640625 0.5925 Q 5.315961181640625 0.627 5.3549611816406255 0.68025 Q 5.393961181640625 0.7335 5.393961181640625 0.8175 Q 5.393961181640625 0.915 5.336961181640625 0.9855 Q 5.279961181640625 1.056 5.174961181640625 1.0935 Q 5.069961181640625 1.131 4.924461181640625 1.131" fill="#092030" fill-rule="nonzero"></path></g><g></g></g><defs><clipPath id="SvgjsClipPath14051"><path d=" M -3.0746191958833604 -0.6108242480133785 h 2.6746191958833605 v 2.334648496026757 h -2.6746191958833605 Z"></path></clipPath><clipPath id="SvgjsClipPath14046f6fc568e-dfcd-48a0-a9a4-aeb02bfb4b7c"><path d=" M -3.0746191958833604 -0.6108242480133785 L -0.3999999999999999 -0.6108242480133785 L -0.3999999999999999 1.7238242480133785 L -3.0746191958833604 1.7238242480133785 Z"></path></clipPath></defs></svg>